<?xml version="1.0" standalone="no"?>
<!DOCTYPE svg PUBLIC "-//W3C//DTD SVG 20010904//EN"
 "http://www.w3.org/TR/2001/REC-SVG-20010904/DTD/svg10.dtd">
<svg version="1.0" xmlns="http://www.w3.org/2000/svg"
 width="1024.000000pt" height="1024.000000pt" viewBox="0 0 1024.000000 1024.000000"
 preserveAspectRatio="xMidYMid meet">

<g transform="translate(0.000000,1024.000000) scale(0.100000,-0.100000)"
fill="#000000" stroke="none">
<path d="M0 5120 l0 -5120 5120 0 5120 0 0 5120 0 5120 -5120 0 -5120 0 0
-5120z m5504 3270 c481 -73 916 -267 1306 -579 97 -78 320 -291 335 -321 13
-25 12 -29 -4 -44 -10 -9 -21 -16 -26 -16 -5 0 -67 58 -139 128 -226 220 -403
351 -667 490 -732 388 -1630 398 -2390 28 -297 -145 -530 -314 -769 -559 -46
-48 -92 -87 -102 -87 -9 0 -22 9 -28 21 -14 25 -16 23 130 167 263 262 556
457 895 594 262 107 428 151 710 188 192 26 547 21 749 -10z m-380 -365 c-23
-35 -31 -179 -15 -256 6 -30 52 -137 101 -239 91 -185 119 -274 120 -366 0
-127 -63 -274 -161 -372 -66 -66 -88 -75 -46 -20 77 102 87 264 24 423 -19 50
-58 142 -86 206 -117 265 -108 457 29 612 45 51 64 57 34 12z m-508 -287 c-43
-70 -27 -160 64 -348 40 -84 74 -169 81 -202 12 -68 0 -149 -31 -214 -21 -42
-99 -138 -106 -131 -3 2 7 24 20 48 52 94 42 173 -44 361 -69 150 -84 206 -77
293 6 84 23 128 67 178 36 42 47 48 26 15z m-2009 -305 c133 -62 264 -269 330
-522 37 -141 44 -371 14 -493 -26 -110 -79 -216 -139 -281 -26 -27 -86 -76
-134 -109 -128 -85 -132 -96 -126 -311 3 -92 2 -170 -2 -172 -5 -3 -34 -2 -66
1 l-59 6 0 177 c0 213 -2 218 -120 296 -115 75 -179 144 -225 240 -50 104 -59
139 -70 267 -18 190 21 411 101 586 39 85 79 146 79 120 0 -8 -5 -19 -12 -26
-7 -7 -8 -12 -4 -12 5 0 14 7 20 16 7 8 29 17 49 19 33 3 104 37 117 57 3 4
28 17 55 29 37 16 70 22 136 23 79 1 90 -1 112 -23 15 -13 31 -20 38 -16 8 5
10 4 5 -3 -4 -7 -3 -12 3 -12 6 0 17 -12 25 -27 l15 -28 -3 28 c-4 39 -93 128
-160 161 -66 32 -142 34 -206 5 -25 -11 -40 -15 -33 -8 6 6 36 20 65 30 64 22
121 16 195 -18z m4886 -487 l-6 -514 21 -7 c12 -3 30 -4 41 0 17 5 19 22 25
203 4 108 14 332 22 497 7 165 14 308 14 318 0 12 6 17 18 15 16 -3 17 -38 22
-518 l5 -515 37 -3 c32 -3 38 0 42 20 3 13 7 196 11 408 7 475 14 610 31 610
16 0 22 -99 34 -595 6 -214 13 -400 16 -412 7 -25 32 -37 58 -27 14 6 16 43
16 383 0 465 8 651 27 651 7 0 13 -9 13 -19 0 -11 7 -102 15 -203 37 -467 46
-618 48 -823 2 -262 -1 -274 -105 -349 -135 -96 -143 -119 -134 -358 l7 -168
-69 0 -68 0 0 183 c1 176 0 183 -24 227 -16 28 -53 66 -105 105 -123 94 -120
86 -120 365 1 245 10 387 51 780 13 129 24 241 24 248 0 6 9 12 19 12 19 0 19
-13 14 -514z m-5183 439 c-13 -14 -27 -25 -32 -25 -9 0 42 49 51 50 3 0 -6
-11 -19 -25z m3310 -6 c-23 -42 -6 -111 61 -251 61 -127 64 -136 64 -208 0
-85 -20 -134 -75 -185 l-32 -30 18 35 c12 23 18 56 18 95 0 51 -8 77 -51 170
-57 122 -73 173 -73 226 0 44 22 110 51 150 24 34 37 33 19 -2z m-3396 -89
c-10 -16 -20 -28 -22 -26 -4 5 28 56 35 56 2 0 -4 -13 -13 -30z m1902 -722
c16 -12 36 -31 46 -41 9 -10 33 -20 55 -23 21 -3 49 -7 61 -10 27 -6 122 -96
122 -117 0 -21 12 -28 27 -16 9 8 13 8 13 0 0 -16 -42 -61 -57 -61 -7 0 -13
-7 -13 -16 0 -8 -3 -13 -7 -11 -5 3 -17 1 -28 -3 -13 -5 -24 -2 -32 9 -9 11
-12 12 -13 3 0 -21 -20 -3 -20 19 0 11 -4 18 -9 14 -5 -3 -13 0 -17 6 -4 7 -3
9 4 5 6 -3 16 2 21 11 10 17 13 16 34 -9 28 -35 39 -35 55 -1 18 40 15 45 -22
38 -28 -6 -34 -3 -39 14 -4 16 -11 19 -36 16 -28 -4 -30 -2 -17 10 8 8 22 15
30 15 9 0 16 5 16 10 0 6 -4 10 -10 10 -5 0 -10 7 -10 15 0 22 -27 30 -47 14
-12 -11 -17 -11 -20 -2 -3 8 -15 10 -34 6 -19 -4 -29 -1 -29 6 0 15 -25 41
-39 41 -6 0 -12 10 -12 23 -1 17 -2 18 -6 4 -6 -25 -25 -16 -34 16 -6 24 -4
27 16 27 12 0 35 -10 51 -22z m1572 -91 c29 -18 60 -39 68 -49 14 -15 13 -17
-5 -23 -18 -6 -26 -22 -22 -47 2 -14 -18 -8 -27 7 -6 13 -14 14 -35 6 -16 -6
-25 -16 -22 -23 4 -10 -13 -19 -54 -30 l-59 -15 -80 41 c-45 22 -92 51 -106
64 -15 12 -29 22 -32 22 -3 0 -11 6 -19 13 -7 7 -50 23 -96 35 -46 11 -93 23
-104 26 -27 7 68 -2 126 -12 25 -5 54 -5 65 -1 25 10 102 9 134 -1 14 -4 18
-9 10 -9 -10 -1 -11 -4 -4 -9 6 -4 19 -22 28 -39 9 -18 20 -33 25 -33 16 0 19
13 8 37 -9 21 -8 27 6 38 21 15 7 28 -20 18 -10 -3 -15 -2 -10 2 12 13 87 23
132 18 22 -3 64 -19 93 -36z m-1577 20 c-1 -12 -15 -9 -19 4 -3 6 1 10 8 8 6
-3 11 -8 11 -12z m1920 -34 c16 -10 35 -30 41 -44 7 -15 26 -33 43 -41 18 -8
37 -28 48 -50 13 -28 23 -38 41 -38 36 0 76 -37 76 -70 0 -16 -4 -32 -10 -35
-5 -3 -10 -15 -10 -26 0 -28 -13 -24 -40 13 -15 21 -19 33 -12 36 18 6 14 19
-8 25 -13 3 -20 0 -20 -9 0 -8 -4 -14 -10 -14 -5 0 -10 6 -10 14 0 8 -14 17
-32 21 -18 4 -39 12 -46 18 -10 8 -16 7 -23 -4 -5 -8 -9 -17 -9 -21 0 -16 64
-79 76 -74 16 6 25 -17 12 -35 -8 -11 -9 -10 -4 4 7 21 -1 22 -21 2 -16 -17
-33 -12 -33 10 0 23 -54 105 -70 106 -8 1 -25 0 -37 -1 -15 -1 -26 6 -33 22
-22 51 -72 108 -95 108 -15 0 -42 40 -28 40 4 0 1 5 -7 11 -11 8 -9 9 10 3 14
-3 48 -23 75 -44 58 -44 95 -56 124 -40 24 12 26 28 9 65 -8 18 -14 22 -20 13
-5 -9 -8 -7 -8 8 0 11 -5 25 -12 32 -19 19 8 15 43 -5z m-778 -14 c24 -13 37
-28 37 -44 0 -5 -5 -3 -11 5 -8 11 -9 8 -4 -15 3 -16 6 -43 5 -59 0 -17 2 -27
6 -23 8 8 47 -40 50 -62 5 -31 13 -66 19 -88 5 -16 3 -23 -6 -23 -8 0 -19 10
-24 23 -13 29 -61 32 -58 2 1 -19 0 -19 -17 3 -13 15 -20 18 -23 10 -4 -10 -8
-9 -16 2 -8 11 -11 12 -11 2 0 -7 -5 -10 -11 -6 -7 4 -10 1 -7 -7 3 -8 12 -13
22 -11 9 2 16 -2 16 -8 0 -15 -26 -12 -40 5 -7 8 -16 12 -21 9 -5 -3 -6 2 -3
10 3 9 11 16 17 16 6 0 4 7 -5 16 -22 23 -40 8 -36 -29 3 -28 -2 -34 -37 -51
-44 -22 -157 -26 -163 -7 -2 6 -10 11 -18 11 -8 0 -14 5 -14 11 0 6 -8 3 -17
-7 -17 -16 -18 -16 -23 5 -3 12 -8 21 -11 19 -3 -2 -18 8 -32 22 -36 34 -36
78 1 104 27 19 27 19 10 0 -30 -35 7 -67 56 -48 23 9 20 51 -5 64 -19 11 -24
49 -5 42 5 -2 12 1 15 7 4 6 23 17 44 26 36 15 37 15 37 -5 0 -26 49 -48 61
-28 6 8 2 18 -8 25 -13 10 -14 19 -7 45 9 30 13 33 44 31 54 -3 98 -14 110
-28 12 -14 50 -9 50 8 0 5 -8 16 -17 23 -17 12 -16 13 5 14 13 0 33 -5 45 -11z
m-1127 -10 c3 -6 -1 -18 -10 -27 -15 -16 -17 -15 -22 5 -4 13 -10 21 -14 18
-5 -3 -11 -1 -15 5 -4 6 6 10 24 10 16 0 33 -5 37 -11z m-67 -90 c-6 -13 -17
-27 -23 -31 -8 -6 -6 -11 4 -18 21 -14 45 -7 44 13 -2 21 22 23 30 2 3 -9 18
-15 35 -15 23 0 29 -4 25 -15 -4 -8 -2 -15 3 -15 6 0 15 -18 22 -40 6 -21 18
-45 25 -52 8 -8 11 -27 8 -46 -5 -36 -25 -38 -30 -4 -2 12 -8 20 -13 17 -5 -4
-9 -2 -9 3 0 5 -11 12 -25 14 -20 4 -23 2 -15 -7 7 -8 7 -15 1 -19 -16 -10
-38 4 -50 31 -6 14 -14 23 -18 20 -3 -4 -17 3 -31 13 -13 11 -34 20 -46 21
-11 0 -15 3 -8 6 6 2 12 17 12 33 0 53 12 88 31 93 10 3 19 13 19 23 0 13 3
15 11 7 8 -8 7 -17 -2 -34z m1265 -19 c7 -41 -8 -21 -18 25 -5 19 -4 26 2 20
5 -5 12 -26 16 -45z m-1194 25 c0 -9 -6 -12 -15 -9 -8 4 -15 10 -15 15 0 5 7
9 15 9 8 0 15 -7 15 -15z m396 4 c16 -5 52 -35 81 -65 50 -51 56 -54 91 -49
l37 6 -35 -19 c-19 -10 -37 -15 -40 -11 -15 19 -47 28 -60 16 -10 -9 -11 -9
-6 1 5 8 0 12 -16 12 -20 1 -21 2 -5 11 27 16 21 28 -24 45 -26 11 -38 21 -35
30 3 9 -1 14 -12 14 -9 0 -24 5 -32 10 -12 8 -11 10 7 10 12 0 34 -5 49 -11z
m-352 -38 c4 -5 -3 -7 -14 -4 -23 6 -26 13 -6 13 8 0 17 -4 20 -9z m266 -26
c0 -9 11 -20 25 -25 30 -11 34 -25 5 -17 -18 5 -25 -6 -22 -34 1 -4 -7 -5 -18
-2 -29 8 -34 33 -15 76 9 21 25 22 25 2z m340 11 c0 -3 -4 -8 -10 -11 -5 -3
-10 -1 -10 4 0 6 5 11 10 11 6 0 10 -2 10 -4z m975 -10 c11 -11 9 -13 -15 -14
-16 0 -31 6 -34 14 -7 18 30 19 49 0z m-1812 -16 c3 -11 2 -22 -3 -25 -4 -3
-10 6 -12 20 -6 30 7 34 15 5z m1915 -6 c25 -7 30 -24 7 -24 -8 0 -15 -3 -15
-7 1 -13 34 -49 50 -55 10 -4 4 -10 -17 -18 -18 -7 -33 -18 -33 -26 0 -11 4
-12 19 -4 27 14 41 13 41 -5 0 -8 -11 -17 -25 -21 -14 -3 -25 -10 -25 -15 0
-5 -7 -9 -16 -9 -8 0 -12 -4 -9 -10 3 -5 1 -10 -6 -10 -6 0 -9 8 -6 20 3 10
-1 24 -9 31 -8 6 -14 17 -14 24 0 6 -11 33 -25 59 -31 59 -31 64 3 69 46 7 56
7 80 1z m-1499 -37 c16 -20 3 -27 -25 -15 -18 8 -21 14 -12 20 18 11 24 10 37
-5z m168 -58 c20 -36 21 -45 10 -54 -8 -5 -12 -15 -10 -22 2 -6 -1 -14 -6 -18
-7 -4 -11 4 -11 19 0 14 -5 28 -10 31 -6 4 -8 15 -5 25 4 12 0 22 -11 28 -11
6 -15 16 -11 27 10 25 29 14 54 -36z m1019 -6 c-10 -10 -19 5 -10 18 6 11 8
11 12 0 2 -7 1 -15 -2 -18z m-8 -16 c9 -10 6 -17 -8 -30 -24 -21 -34 -21 -49
-3 -9 11 -8 18 4 30 20 19 39 20 53 3z m660 -3 c12 -8 22 -22 22 -30 0 -8 7
-17 15 -20 8 -4 15 -11 15 -17 0 -6 -10 -1 -22 10 -13 11 -33 26 -45 32 -13 6
-23 18 -23 26 0 19 10 19 38 -1z m-1938 -14 c0 -6 12 -15 26 -21 38 -14 24
-21 -14 -8 -29 10 -45 39 -22 39 6 0 10 -5 10 -10z m160 -37 c0 -8 -9 -24 -20
-35 -13 -15 -16 -24 -9 -29 7 -4 8 -9 1 -13 -5 -3 -13 2 -17 11 -3 10 -1 19 4
21 6 2 11 10 11 18 0 9 -4 12 -10 9 -5 -3 -10 -1 -10 5 0 7 7 10 15 6 18 -6
19 7 4 37 -12 22 -12 22 10 3 11 -11 21 -25 21 -33z m2250 -21 c25 -26 60 -58
78 -71 42 -30 48 -42 66 -146 9 -49 20 -93 26 -99 14 -14 12 -26 -4 -20 -7 3
-16 -2 -19 -10 -4 -9 -11 -16 -17 -16 -6 0 -9 4 -5 9 3 5 1 12 -5 16 -5 3 -10
14 -10 23 0 9 -16 35 -36 56 -34 39 -35 40 -14 51 11 6 17 15 13 19 -4 5 2 6
15 3 19 -4 21 -3 12 8 -6 8 -19 11 -27 8 -10 -4 -14 -2 -9 5 3 6 -3 13 -15 17
-12 4 -18 13 -15 20 8 21 -13 85 -29 85 -7 0 -16 6 -18 13 -3 6 -6 -3 -6 -21
-1 -21 -5 -31 -12 -26 -6 3 -9 15 -6 25 3 11 -2 24 -11 32 -10 6 -17 19 -17
27 0 21 -45 41 -66 29 -10 -5 -26 -9 -36 -9 -17 1 -16 2 2 16 15 11 34 14 70
10 44 -4 55 -11 95 -54z m-480 13 c0 -8 -7 -15 -15 -15 -9 0 -12 6 -9 15 4 8
10 15 15 15 5 0 9 -7 9 -15z m340 -15 c22 -22 28 -84 8 -78 -13 5 -21 18 -36
66 -12 37 -1 41 28 12z m-2192 -8 c3 -10 -4 -13 -24 -10 -37 4 -45 28 -8 25
15 -1 29 -8 32 -15z m158 -5 c4 -12 -1 -24 -13 -32 -15 -12 -20 -12 -30 2 -7
9 -13 25 -13 35 0 24 48 20 56 -5z m1788 8 c3 -8 1 -15 -3 -15 -5 0 -11 7 -15
15 -3 8 -1 15 3 15 5 0 11 -7 15 -15z m-834 -15 c0 -11 -4 -20 -8 -20 -4 0 -8
9 -8 20 0 11 4 20 8 20 4 0 8 -9 8 -20z m660 11 l25 -7 -24 -8 c-15 -5 -26 -4
-31 3 -3 7 -15 9 -26 5 -16 -5 -16 -4 -4 5 17 12 24 12 60 2z m-1114 -28 c-2
-2 -16 -1 -32 3 -25 6 -26 8 -9 14 18 7 51 -7 41 -17z m944 11 c0 -2 -13 -4
-30 -4 -16 0 -30 4 -30 8 0 5 14 7 30 4 17 -2 30 -6 30 -8z m-150 1 c0 -2 -9
-9 -20 -15 -12 -6 -20 -7 -20 -1 0 5 8 12 18 14 9 3 18 5 20 6 1 0 2 -1 2 -4z
m44 -7 c-3 -4 -9 -8 -15 -8 -5 0 -9 4 -9 8 0 5 7 9 15 9 8 0 12 -4 9 -9z m69
-18 c18 0 38 5 44 11 7 7 36 10 75 7 57 -3 70 -9 131 -52 37 -26 72 -58 78
-70 7 -11 29 -44 50 -72 22 -28 39 -59 39 -70 0 -10 9 -51 19 -90 18 -69 18
-72 -1 -107 -18 -37 -58 -68 -58 -47 0 7 -15 2 -35 -10 -28 -17 -48 -21 -108
-19 -87 2 -95 6 -181 82 -89 79 -113 113 -137 193 -26 93 -26 134 -1 183 31
59 28 61 -24 11 -25 -25 -43 -38 -39 -30 7 20 -75 46 -87 27 -5 -8 -8 -6 -8 5
0 9 8 22 18 27 9 6 13 11 9 11 -4 0 -25 -11 -45 -25 -20 -14 -43 -25 -52 -24
-13 0 -13 1 0 6 8 3 22 14 32 23 21 19 97 45 106 35 4 -3 0 -10 -8 -15 -21
-13 -10 -18 32 -12 21 2 35 8 32 14 -3 5 5 8 18 7 45 -4 58 0 52 19 -5 16 -5
16 6 0 7 -11 23 -18 43 -18z m304 15 c0 -16 -24 -19 -54 -8 -16 6 -15 8 7 14
39 11 47 10 47 -6z m53 -1 c0 -2 -9 -4 -21 -4 -11 0 -18 4 -14 10 5 8 35 3 35
-6z m-645 -4 c3 -6 -1 -7 -9 -4 -18 7 -21 14 -7 14 6 0 13 -4 16 -10z m-1265
-10 c13 -8 13 -10 -2 -10 -9 0 -20 5 -23 10 -8 13 5 13 25 0z m-85 -20 c3 -5
1 -10 -4 -10 -6 0 -11 5 -11 10 0 6 2 10 4 10 3 0 8 -4 11 -10z m798 -4 c18
-8 41 -16 52 -18 17 -3 20 -12 21 -68 1 -51 -2 -69 -17 -82 -25 -24 -30 -23
-62 17 -20 25 -24 35 -13 35 8 0 17 -6 19 -12 3 -8 6 -8 6 -2 1 6 -8 19 -19
29 -24 22 -26 41 -4 49 16 6 11 26 -7 26 -6 0 -7 -5 -3 -11 4 -7 -7 -4 -25 7
-32 19 -36 26 -24 37 11 11 43 8 76 -7z m1573 -73 c-6 -12 -14 -19 -18 -17 -9
6 -29 -32 -21 -40 3 -3 1 -6 -5 -6 -17 0 -15 11 5 40 10 14 16 26 15 28 -2 1
0 16 3 33 l7 31 12 -23 c8 -17 9 -30 2 -46z m-2126 27 c0 -11 -4 -20 -10 -20
-5 0 -10 2 -10 4 0 2 -3 11 -6 20 -4 11 -1 16 10 16 9 0 16 -8 16 -20z m1750
11 c0 -5 -7 -14 -15 -21 -12 -10 -15 -10 -15 2 0 8 3 18 7 21 9 10 23 9 23 -2z
m-1441 -12 c17 -6 32 -18 33 -27 2 -33 4 -37 12 -50 10 -16 1 -27 -14 -17 -6
4 -9 17 -6 30 8 33 -5 39 -24 10 l-17 -25 -26 20 c-29 23 -34 39 -15 58 15 15
17 15 57 1z m1718 -25 c-3 -3 -12 -4 -19 -1 -8 3 -5 6 6 6 11 1 17 -2 13 -5z
m-130 -55 c-1 -11 -5 -19 -9 -19 -4 0 -7 -5 -5 -12 1 -6 -9 -17 -23 -25 -25
-12 -25 -13 -2 -13 12 0 22 -4 22 -10 0 -13 -4 -13 -34 1 -28 13 -42 67 -17
65 9 -1 16 6 17 14 3 40 3 40 28 29 15 -7 24 -19 23 -30z m310 22 c-1 -11 -7
-17 -17 -16 -8 2 -21 4 -27 4 -19 1 -16 19 5 24 33 9 41 7 39 -12z m-100 -23
c-3 -8 -6 -5 -6 6 -1 11 2 17 5 13 3 -3 4 -12 1 -19z m-1362 -40 c29 -43 32
-54 20 -61 -8 -4 -15 -15 -15 -22 0 -8 -4 -15 -8 -15 -5 0 -8 21 -8 48 1 31
-3 47 -11 47 -7 0 -12 -4 -10 -10 1 -5 5 -9 10 -7 11 3 8 -16 -4 -24 -6 -3 -8
-17 -5 -30 4 -14 2 -24 -4 -24 -5 0 -10 5 -10 11 0 5 -4 8 -9 5 -23 -14 -39 6
-34 40 4 22 2 34 -6 34 -19 0 -12 28 9 35 11 3 20 11 20 16 0 25 33 3 65 -43z
m1435 4 c0 -10 9 -25 20 -35 11 -9 20 -22 20 -29 0 -7 -13 2 -30 20 -28 31
-43 81 -20 67 6 -3 10 -14 10 -23z m-5 -83 c-7 -29 -9 -31 -20 -16 -7 9 -17
17 -22 17 -6 0 -10 20 -9 44 l1 43 28 -27 c25 -24 28 -33 22 -61z m-1775 66
c0 -8 -4 -15 -10 -15 -5 0 -10 7 -10 15 0 8 5 15 10 15 6 0 10 -7 10 -15z
m171 -21 c17 -8 29 -18 26 -20 -3 -3 -22 4 -44 15 -21 11 -32 20 -25 21 7 0
27 -7 43 -16z m-355 -14 c8 0 14 -4 14 -10 0 -5 -4 -10 -8 -10 -12 0 -32 22
-31 35 0 5 3 4 6 -2 2 -7 11 -13 19 -13z m614 -7 c0 -21 -3 -24 -9 -14 -5 8
-7 20 -4 28 8 21 13 15 13 -14z m-420 3 c0 -2 -7 -9 -15 -16 -13 -11 -14 -10
-9 4 5 14 24 23 24 12z m553 -16 c23 -11 27 -19 25 -44 -2 -25 -8 -32 -30 -34
-24 -3 -28 0 -28 22 0 29 3 30 31 16 10 -6 19 -7 19 -3 0 11 -37 43 -50 43 -6
0 -10 5 -10 11 0 6 3 9 8 7 4 -2 20 -10 35 -18z m-89 -20 c-10 -16 -20 -27
-22 -25 -5 5 26 55 34 55 3 0 -3 -13 -12 -30z m-329 2 c-3 -3 -11 0 -18 7 -9
10 -8 11 6 5 10 -3 15 -9 12 -12z m-1073 -1 c10 0 16 -9 15 -21 -1 -12 -5 -16
-11 -10 -12 12 -46 -6 -46 -25 0 -24 24 -23 77 6 48 25 53 26 58 9 3 -10 -2
-34 -12 -54 -14 -30 -15 -41 -5 -56 25 -41 4 -41 -38 0 -17 17 -41 30 -55 30
-44 0 -51 8 -47 52 4 38 3 41 -17 35 -24 -6 -27 5 -7 25 12 12 27 14 88 9z
m209 -63 c-11 -11 -13 -10 -6 1 5 9 3 12 -6 9 -8 -3 -13 -11 -11 -17 2 -13
-14 -15 -22 -2 -4 5 -1 11 4 13 8 2 8 11 1 28 -8 20 -10 21 -10 6 -1 -11 -4
-17 -7 -13 -3 3 -3 15 1 26 6 20 7 20 38 -9 27 -25 29 -31 18 -42z m2254 62
c3 -5 1 -10 -4 -10 -6 0 -11 5 -11 10 0 6 2 10 4 10 3 0 8 -4 11 -10z m315
-11 c0 -6 -4 -7 -10 -4 -5 3 -10 11 -10 16 0 6 5 7 10 4 6 -3 10 -11 10 -16z
m-1842 -16 c6 -9 12 -27 12 -39 0 -20 -4 -22 -42 -19 -24 2 -46 4 -50 4 -5 1
-8 6 -8 12 0 6 6 9 14 6 16 -6 30 30 15 39 -5 3 -9 10 -9 16 0 15 53 0 68 -19z
m212 8 c7 -14 7 -22 0 -26 -6 -4 -8 -11 -5 -16 4 -5 3 -9 -1 -9 -11 0 -33 34
-34 53 0 23 27 22 40 -2z m1542 -46 c6 -6 6 -2 2 10 -7 18 -6 18 9 6 9 -7 17
-19 17 -27 0 -20 -62 8 -71 32 -15 38 -9 46 13 18 12 -16 25 -33 30 -39z
m-2805 41 c-3 -8 5 -19 19 -26 24 -13 32 -30 15 -30 -12 0 -41 -29 -41 -41 0
-5 7 -9 15 -9 8 0 15 -6 15 -14 0 -13 70 -34 93 -28 4 1 7 -5 7 -14 0 -13 -8
-15 -50 -9 -41 6 -50 4 -50 -8 0 -10 11 -17 27 -19 24 -3 29 -9 36 -48 5 -25
13 -50 18 -57 7 -7 6 -14 -1 -18 -5 -3 -10 -18 -10 -33 l-1 -27 -19 23 c-16
19 -26 22 -50 17 -23 -5 -30 -3 -30 8 0 17 26 30 43 21 7 -3 1 4 -12 15 -13
12 -33 21 -45 21 -19 1 -20 2 -4 14 10 7 14 17 10 22 -4 5 2 1 14 -9 23 -19
45 -24 26 -5 -7 7 -12 21 -12 31 0 16 -3 17 -15 7 -12 -10 -15 -10 -15 0 0 19
-11 6 -14 -17 -2 -10 -10 -19 -20 -21 -15 -3 -14 1 4 34 23 40 19 50 -22 58
-14 2 -36 9 -47 16 -12 6 -26 8 -31 5 -18 -11 -19 13 0 30 11 10 20 14 21 9 0
-5 4 0 8 11 8 19 9 18 21 -7 17 -35 37 -36 52 -2 10 22 10 28 -4 38 -15 11
-14 15 10 44 27 33 48 43 39 18z m723 -6 c0 -11 -4 -20 -10 -20 -5 0 -10 9
-10 20 0 11 5 20 10 20 6 0 10 -9 10 -20z m470 16 c0 -3 -4 -8 -10 -11 -5 -3
-10 -1 -10 4 0 6 5 11 10 11 6 0 10 -2 10 -4z m1828 -32 c-4 -3 -12 5 -18 18
-12 22 -12 22 6 6 10 -10 15 -20 12 -24z m-2188 18 c0 -14 -11 -21 -26 -15
-21 8 -17 23 6 23 11 0 20 -4 20 -8z m140 -12 c0 -5 -5 -10 -11 -10 -5 0 -7 5
-4 10 3 6 8 10 11 10 2 0 4 -4 4 -10z m487 -13 c3 -6 1 -7 -5 -3 -7 4 -12 2
-12 -4 0 -17 -33 -7 -35 11 -2 12 3 15 21 11 13 -2 27 -9 31 -15z m-107 4 c0
-5 8 -11 18 -13 14 -3 13 -5 -5 -10 -15 -4 -23 -1 -26 13 -3 11 -1 19 4 19 5
0 9 -4 9 -9z m215 -59 c-4 -4 -11 1 -16 10 -5 9 -16 24 -24 32 -8 8 -15 18
-15 23 0 4 14 -7 31 -25 17 -19 28 -37 24 -40z m1424 27 c5 -16 17 -29 25 -29
19 0 21 16 4 23 -7 2 -10 8 -6 12 4 4 15 4 25 0 10 -5 22 -7 27 -6 14 3 76
-49 76 -64 0 -7 7 -21 16 -29 8 -9 11 -16 6 -16 -6 0 -25 18 -42 40 -36 45
-45 49 -47 20 -1 -11 4 -20 12 -20 8 0 26 -12 41 -27 15 -15 34 -28 43 -29 54
-6 205 -46 253 -68 94 -42 101 -68 72 -265 -104 -702 -511 -1271 -1150 -1608
-111 -58 -144 -81 -144 -98 0 -8 -9 -40 -21 -71 -19 -51 -26 -58 -73 -79 -258
-113 -860 -153 -1349 -90 -66 9 -129 23 -141 31 -20 14 -20 14 -1 14 26 0 89
22 106 37 8 6 47 16 87 21 40 6 79 15 86 21 6 6 22 8 33 5 12 -3 29 -1 39 4
15 8 12 12 -22 21 -21 6 -50 11 -62 11 -31 0 -179 37 -217 55 -16 7 -50 18
-75 25 -25 6 -54 15 -65 19 -11 5 -35 14 -52 21 -18 7 -33 16 -33 20 0 4 -16
11 -35 14 -19 4 -47 17 -62 30 -15 12 -54 34 -85 49 -32 15 -58 30 -58 34 0 5
-23 19 -51 33 -28 14 -55 32 -60 41 -4 9 -25 23 -46 32 -21 8 -62 37 -92 64
-29 26 -57 48 -62 48 -4 0 -59 48 -120 108 -62 59 -116 107 -121 107 -4 0 -8
7 -8 15 0 8 -7 15 -15 15 -8 0 -15 3 -15 8 0 4 -27 36 -60 72 -33 36 -82 97
-108 135 -26 39 -50 72 -54 73 -5 2 -8 10 -8 18 0 8 -3 14 -7 14 -5 0 -13 10
-19 23 -6 12 -35 68 -63 123 -28 56 -51 106 -51 112 0 5 -9 38 -21 73 -46 142
-99 380 -99 445 0 27 -4 34 -20 34 -11 0 -19 5 -17 11 1 6 -22 23 -50 39 -29
16 -53 26 -53 23 0 -3 -7 0 -15 7 -24 20 -19 65 9 83 45 30 289 97 352 97 28
0 -24 -83 -54 -85 -58 -5 -172 -50 -186 -74 -9 -15 149 -49 350 -75 214 -29
506 -51 859 -66 305 -13 1233 -25 1268 -16 22 5 27 12 27 36 0 16 5 32 10 35
14 9 13 48 -2 63 -18 18 4 15 32 -5 31 -21 40 -34 33 -47 -3 -5 -1 -6 5 -2 13
8 32 -24 32 -53 0 -12 6 -21 13 -22 86 -7 763 23 774 34 1 2 -4 18 -13 36 -16
32 -13 67 5 56 6 -3 13 -26 17 -51 l7 -46 91 6 c294 22 555 54 671 82 111 27
169 64 100 64 -13 0 -27 5 -30 10 -4 6 -12 10 -18 9 -7 -1 -25 4 -42 11 -16 7
-46 13 -65 14 -43 2 -78 20 -61 30 7 4 17 4 24 -2 7 -5 20 -12 31 -16 18 -6
18 -5 3 16 -8 13 -21 22 -27 20 -6 -1 -9 2 -6 7 4 5 2 12 -4 16 -5 3 -10 1
-10 -6 0 -7 -8 -6 -25 5 -24 16 -25 16 -25 -9 0 -14 5 -25 10 -25 18 0 10 -19
-11 -25 -12 -4 -18 -12 -15 -21 9 -23 -19 -16 -45 12 -13 14 -24 29 -23 32 0
4 -15 31 -34 59 -30 46 -33 55 -21 69 12 14 11 16 -6 13 -22 -5 -55 23 -55 45
0 15 34 25 57 18 6 -2 16 -17 22 -33z m-2233 -12 c-31 -10 -39 -6 -30 16 5 13
10 14 31 4 l25 -11 -26 -9z m421 17 c2 -6 -13 -14 -34 -17 -41 -7 -60 0 -25
10 12 3 22 10 22 15 0 13 32 6 37 -8z m273 -25 c0 -5 -10 -14 -22 -19 -21 -8
-21 -9 -3 -10 20 -1 20 -1 1 -12 -15 -8 -21 -8 -24 0 -2 7 -11 12 -20 12 -13
1 -9 7 12 24 27 23 56 25 56 5z m-1170 1 c0 -5 -4 -10 -9 -10 -6 0 -13 5 -16
10 -3 6 1 10 9 10 9 0 16 -4 16 -10z m2505 -1 c11 -17 -1 -21 -15 -4 -8 9 -8
15 -2 15 6 0 14 -5 17 -11z m-1747 -5 c29 -8 28 -18 -4 -39 -24 -16 -27 -16
-59 6 -18 13 -31 27 -29 31 6 9 59 10 92 2z m171 -26 c13 -22 13 -29 2 -42
-24 -29 -56 -19 -86 25 l-27 42 37 -7 c27 -5 35 -4 30 4 -5 8 -1 11 11 8 10
-2 25 -15 33 -30z m-309 15 c0 -5 -7 -17 -15 -27 -20 -27 -19 -95 2 -118 9
-10 12 -18 6 -18 -10 0 -26 27 -43 74 -14 37 6 96 32 96 10 0 18 -3 18 -7z
m726 -8 c9 -8 11 -15 6 -15 -5 0 -15 7 -22 15 -7 8 -9 15 -6 15 4 0 14 -7 22
-15z m-20 -20 c24 -23 25 -25 7 -25 -11 0 -25 11 -31 25 -6 14 -10 25 -7 25 2
0 16 -11 31 -25z m-249 -9 c-3 -8 9 -31 28 -52 38 -42 37 -54 -5 -54 -38 0
-47 16 -23 42 18 21 18 21 -12 13 -79 -21 -97 5 -30 42 49 26 48 26 42 9z
m1258 4 c3 -6 -1 -7 -9 -4 -18 7 -21 14 -7 14 6 0 13 -4 16 -10z m-1862 -20
c-6 -23 -19 -26 -26 -6 -4 9 1 17 11 19 9 3 18 5 19 6 0 0 -1 -8 -4 -19z m706
-11 c-23 -14 -49 -10 -49 7 0 12 6 15 25 10 17 -4 25 -2 26 6 0 10 2 9 6 -1 3
-7 -1 -17 -8 -22z m-393 -53 c-7 -27 -33 -41 -51 -26 -6 5 -15 6 -20 2 -4 -4
-6 0 -3 8 3 8 13 14 22 12 24 -4 46 27 40 58 -4 23 -3 23 7 -3 6 -15 8 -38 5
-51z m-812 48 c9 -3 16 -12 16 -20 0 -17 -12 -18 -28 -2 -10 10 -15 10 -22 -2
-5 -8 -7 -17 -4 -21 2 -4 -9 -17 -26 -29 -25 -18 -30 -19 -30 -6 0 9 -7 16
-15 16 -8 0 -15 4 -15 10 0 15 48 43 64 37 8 -3 20 1 26 9 14 16 13 16 34 8z
m2579 -87 c26 -22 50 -51 53 -64 7 -26 14 -29 32 -11 9 9 12 9 13 -2 1 -8 3
-30 5 -49 3 -27 1 -32 -12 -27 -9 3 -27 9 -40 12 -14 4 -31 18 -39 33 -20 37
-57 76 -80 85 -16 6 -17 9 -5 16 12 8 10 10 -7 10 -13 0 -23 5 -23 11 0 7 -12
22 -27 35 -15 13 -24 26 -20 30 4 4 7 2 7 -4 0 -7 4 -12 10 -12 5 0 7 7 3 16
-8 20 62 -22 130 -79z m-2046 77 c-3 -3 -12 -4 -19 -1 -8 3 -5 6 6 6 11 1 17
-2 13 -5z m-912 -44 c4 0 4 4 0 9 -3 5 -1 12 4 15 5 3 12 -1 15 -10 4 -9 13
-14 22 -10 13 5 12 1 -3 -24 -9 -17 -21 -30 -25 -30 -4 0 -8 -10 -8 -22 0 -13
-4 -29 -9 -37 -7 -11 -13 -10 -34 5 -37 28 -42 53 -8 51 20 -2 27 3 29 22 2
13 -2 28 -9 35 -9 8 -10 8 -4 -4 6 -12 5 -13 -5 -3 -11 10 -11 15 0 28 13 15
15 15 22 -4 4 -12 10 -21 13 -21z m1383 -1 c-3 -8 -7 -3 -11 10 -4 17 -3 21 5
13 5 -5 8 -16 6 -23z m627 21 c-3 -5 -12 -10 -18 -10 -7 0 -6 4 3 10 19 12 23
12 15 0z m-235 -21 c0 -5 -4 -9 -10 -9 -5 0 -10 7 -10 16 0 8 5 12 10 9 6 -3
10 -10 10 -16z m-424 -3 c3 -8 2 -22 -3 -30 -8 -14 -12 -14 -28 -3 -11 9 -16
20 -12 31 8 20 36 21 43 2z m810 -9 c-3 -11 2 -30 11 -43 12 -19 19 -22 33
-14 29 16 38 12 32 -15 -2 -14 -11 -25 -19 -25 -20 0 -63 30 -63 45 0 7 -6 18
-14 24 -20 17 -16 47 7 47 13 0 17 -6 13 -19z m1848 -492 c3 -275 11 -787 17
-1137 7 -351 9 -641 6 -645 -4 -3 -9 -4 -12 -2 -2 3 -5 165 -5 359 -1 195 -8
621 -15 945 -17 708 -19 1003 -5 989 6 -6 11 -205 14 -509z m-1024 495 c13 -8
13 -10 -2 -10 -9 0 -20 5 -23 10 -8 13 5 13 25 0z m-1038 -22 c-6 -6 -15 -8
-19 -4 -4 4 -1 11 7 16 19 12 27 3 12 -12z m609 -11 c-8 -8 -11 -7 -11 4 0 9
3 19 7 23 4 4 9 2 11 -4 3 -7 -1 -17 -7 -23z m-1621 2 c0 -6 -4 -7 -10 -4 -5
3 -10 11 -10 16 0 6 5 7 10 4 6 -3 10 -11 10 -16z m685 -9 c3 -5 -1 -10 -9
-10 -9 0 -16 5 -16 10 0 6 4 10 9 10 6 0 13 -4 16 -10z m485 -5 c7 -8 8 -15 2
-15 -5 0 -15 7 -22 15 -7 8 -8 15 -2 15 5 0 15 -7 22 -15z m373 2 c41 -15 39
-27 -5 -27 -15 0 -28 -4 -28 -10 0 -5 -10 -10 -22 -11 -13 0 -17 -3 -10 -6 6
-2 12 -11 12 -19 0 -8 9 -14 20 -14 19 0 38 -25 28 -35 -8 -8 -58 20 -58 33 0
6 -4 12 -10 12 -17 0 -11 29 10 50 12 12 18 25 15 30 -8 13 2 12 48 -3z m215
-12 c13 -28 5 -37 -26 -28 -24 6 -28 23 -10 41 17 17 23 15 36 -13z m-745 -28
c-7 -11 -23 2 -23 19 0 12 2 12 14 2 8 -7 12 -16 9 -21z m1409 -2 c13 -17 9
-35 -7 -29 -8 4 -15 14 -15 23 0 9 -6 23 -12 31 -10 11 -9 11 7 0 11 -8 23
-19 27 -25z m-1612 0 c0 -8 -5 -15 -11 -15 -5 0 -7 5 -3 11 4 8 -1 9 -16 4
-15 -5 -20 -4 -16 4 11 16 46 13 46 -4z m861 -2 c12 -15 12 -16 -8 -11 -12 3
-24 1 -26 -6 -2 -6 -22 -11 -44 -11 -37 0 -40 2 -31 18 9 17 11 17 27 3 23
-21 34 -20 49 4 15 24 16 24 33 3z m792 -14 c7 -27 -14 -19 -24 9 -6 16 -5 20
6 16 7 -3 15 -14 18 -25z m-2134 8 c35 -17 35 -30 1 -50 -16 -10 -30 -15 -30
-11 0 4 -13 -5 -30 -21 -25 -24 -33 -27 -52 -17 -14 6 -17 11 -8 11 10 1 4 10
-15 26 -30 25 -20 34 16 14 21 -11 59 -4 59 12 0 5 -7 9 -15 9 -8 0 -15 9 -15
20 0 16 7 20 33 20 17 0 43 -6 56 -13z m1058 7 c-3 -3 -12 -4 -19 -1 -8 3 -5
6 6 6 11 1 17 -2 13 -5z m-893 -30 c3 -9 -1 -14 -12 -14 -10 0 -18 8 -19 19
-2 22 22 19 31 -5z m610 7 c3 -5 -3 -11 -14 -14 -13 -3 -20 0 -20 9 0 15 26
19 34 5z m341 -1 c-3 -5 -10 -10 -16 -10 -5 0 -9 5 -9 10 0 6 7 10 16 10 8 0
12 -4 9 -10z m-2311 -22 c19 -27 20 -38 4 -38 -16 0 -48 31 -48 47 0 21 27 15
44 -9z m1856 12 c0 -12 -28 -25 -36 -17 -9 9 6 27 22 27 8 0 14 -5 14 -10z
m320 -10 c6 -11 7 -20 2 -20 -10 0 -32 21 -32 32 0 16 19 8 30 -12z m-860 0
c0 -5 0 -12 0 -15 0 -14 -13 -8 -16 8 -1 9 2 17 7 17 5 0 9 -4 9 -10z m-1076
-9 c3 -4 -1 -17 -9 -27 -14 -18 -14 -17 -13 9 2 27 12 35 22 18z m1334 -21
c-8 -25 -13 -28 -24 -19 -12 10 -12 15 2 30 25 28 34 23 22 -11z m529 21 c6 6
17 4 29 -5 10 -8 15 -18 11 -22 -4 -5 -12 -2 -17 6 -8 13 -10 12 -10 -2 0 -22
-16 -23 -24 -2 -3 8 -10 13 -15 10 -5 -3 -14 1 -21 9 -11 14 -10 14 12 6 16
-6 29 -6 35 0z m-79 -25 c3 -15 0 -18 -17 -13 -13 3 -25 -1 -31 -11 -9 -16 -9
-16 -10 1 0 9 5 17 10 17 6 0 10 7 10 16 0 22 34 13 38 -10z m-88 4 c0 -5 -7
-10 -15 -10 -8 0 -15 5 -15 10 0 6 7 10 15 10 8 0 15 -4 15 -10z m-42 -29 c3
-9 -2 -9 -22 0 -14 7 -26 16 -26 20 0 12 43 -6 48 -20z m415 9 c3 -11 1 -20
-4 -20 -5 0 -9 2 -9 4 0 2 -3 11 -6 20 -3 9 -2 16 4 16 5 0 12 -9 15 -20z
m202 -11 c4 -11 4 -23 1 -26 -3 -4 -6 -1 -6 6 0 8 -7 11 -15 7 -15 -5 -21 14
-8 27 12 12 22 7 28 -14z m225 0 c0 -6 -4 -7 -10 -4 -5 3 -10 11 -10 16 0 6 5
7 10 4 6 -3 10 -11 10 -16z m-1127 -10 c3 -13 1 -19 -6 -16 -15 5 -22 37 -9
37 5 0 12 -9 15 -21z m827 7 c0 -9 -7 -12 -20 -9 -13 4 -26 -1 -34 -12 -8 -12
-15 -14 -20 -7 -8 13 31 42 56 42 10 0 18 -6 18 -14z m-3713 -48 c-3 -8 -6 -5
-6 6 -1 11 2 17 5 13 3 -3 4 -12 1 -19z m5237 -2085 c-10 -40 -14 -41 -14 -5
0 18 5 32 10 32 6 0 8 -11 4 -27z m-7 -85 c-3 -7 -5 -2 -5 12 0 14 2 19 5 13
2 -7 2 -19 0 -25z m-4754 -729 c12 -6 38 -27 58 -45 l35 -34 21 28 c25 34 79
62 118 62 39 0 104 -40 123 -75 14 -24 18 -72 22 -245 4 -142 2 -217 -5 -222
-5 -4 -25 -8 -42 -8 l-33 0 0 204 c0 191 -1 205 -21 230 -36 46 -92 29 -128
-41 -7 -14 -11 -88 -11 -202 l0 -180 -34 -7 c-19 -3 -39 -3 -45 1 -7 4 -11 65
-11 169 0 95 -5 177 -11 197 -28 83 -109 119 -145 64 -14 -22 -16 -52 -13
-228 l4 -202 -40 0 -40 0 -3 205 c-3 256 7 290 98 332 24 11 79 9 103 -3z
m734 -16 c69 -44 74 -66 71 -308 l-3 -210 -35 0 -35 0 -3 88 -3 87 -84 0 -85
0 0 -85 0 -85 -40 0 -40 0 0 203 c0 175 3 207 19 243 17 38 54 73 91 87 41 15
107 6 147 -20z m390 7 c18 -10 39 -31 49 -45 21 -31 27 -31 44 1 18 32 78 64
122 64 46 0 99 -31 123 -71 18 -31 20 -52 20 -254 l0 -220 -34 -3 c-20 -2 -37
2 -43 10 -5 7 -8 90 -7 183 1 229 2 222 -21 245 -28 28 -62 25 -92 -7 -43 -45
-48 -73 -48 -259 l0 -174 -39 0 c-26 0 -41 5 -45 16 -3 9 -6 90 -6 180 0 177
-8 218 -51 248 -30 21 -67 21 -91 -1 -16 -15 -18 -35 -18 -230 l0 -214 -37 3
-38 3 -6 175 c-8 207 -4 260 25 303 42 63 131 85 193 47z m714 -3 c78 -41 83
-62 80 -354 l-1 -173 -40 0 -40 0 0 90 0 90 -85 0 -85 0 0 -90 0 -90 -40 0
-40 0 -2 153 c-5 249 -2 285 24 323 50 73 145 95 229 51z m582 9 c18 -7 45
-28 60 -45 l27 -33 26 32 c53 63 118 76 185 38 71 -40 74 -48 77 -276 5 -249
4 -254 -46 -250 l-37 3 -3 209 c-2 178 -5 213 -19 228 -24 27 -65 22 -97 -11
-35 -36 -46 -106 -46 -293 l0 -138 -40 0 -40 0 -1 148 c-1 197 -8 245 -44 282
-50 52 -113 34 -117 -33 -1 -18 -2 -113 -2 -212 l-1 -180 -40 0 -40 0 -3 215
c-3 248 2 267 78 307 50 26 77 29 123 9z m755 -33 l3 -43 -83 0 c-104 0 -131
-14 -126 -68 l3 -37 92 0 c50 0 94 -2 97 -6 3 -3 3 -22 -1 -42 l-6 -37 -93 0
-94 0 0 -75 c0 -94 10 -102 130 -107 l85 -3 0 -40 0 -40 -72 -3 c-90 -4 -144
10 -186 48 l-32 28 -3 177 c-3 184 2 217 38 250 33 30 92 45 170 42 l75 -2 3
-42z m345 17 c68 -46 71 -59 71 -300 l1 -215 -40 0 -40 0 -3 88 -3 87 -84 0
-85 0 0 -90 0 -90 -41 0 -40 0 3 224 c3 250 4 253 79 304 45 31 130 27 182 -8z
m231 24 c14 -5 16 -34 16 -220 0 -196 1 -214 18 -223 22 -12 63 -19 115 -20
36 -1 37 -2 37 -41 l0 -40 -76 0 c-50 0 -88 6 -110 16 -60 29 -64 47 -64 298
l0 225 23 4 c12 2 23 5 24 6 1 0 8 -2 17 -5z m484 -15 c53 -26 60 -40 35 -73
-22 -31 -28 -31 -60 -6 -44 35 -103 22 -117 -25 -8 -29 2 -40 90 -98 96 -64
124 -102 124 -167 0 -150 -224 -221 -305 -96 -15 23 -15 27 0 50 22 33 30 33
72 -4 18 -16 43 -30 54 -30 32 0 79 29 89 56 15 40 -7 70 -96 129 -97 64 -114
85 -114 143 0 118 111 177 228 121z"/>
<path d="M2320 7098 c-19 -30 -40 -88 -40 -113 0 -11 -9 -35 -20 -53 -17 -27
-20 -50 -20 -140 0 -60 4 -112 9 -118 11 -12 33 -81 38 -118 8 -70 47 -94 213
-132 62 -13 118 -31 126 -39 20 -19 69 -28 92 -16 11 6 23 26 26 44 10 51 35
69 92 65 43 -3 49 -6 52 -27 3 -19 6 -21 13 -10 7 10 9 6 8 -16 -2 -49 0 -52
16 -21 9 16 20 73 26 126 18 158 -25 419 -88 530 -14 25 -14 25 -7 1 3 -13 2
-21 -3 -18 -5 3 -8 -13 -8 -36 1 -30 -4 -46 -17 -55 -15 -11 -32 -6 -120 38
-56 28 -143 62 -192 76 -50 13 -93 29 -94 34 -3 8 -8 7 -17 0 -9 -8 -17 -7
-28 5 -22 21 -40 19 -57 -7z"/>
<path d="M2065 6940 c-4 -11 -4 -35 -1 -53 3 -17 3 -26 0 -19 -13 28 -19 7
-20 -71 -1 -45 1 -64 3 -42 2 22 9 46 16 53 9 12 21 152 12 152 -2 0 -7 -9
-10 -20z"/>
<path d="M2060 6765 c0 -19 2 -35 4 -35 2 0 6 16 8 35 2 19 0 35 -4 35 -4 0
-8 -16 -8 -35z"/>
<path d="M2831 6252 c-7 -13 -6 -23 1 -30 9 -9 9 -15 -1 -24 -10 -11 -11 -10
-6 3 3 9 -2 22 -12 30 -10 7 -15 10 -11 5 8 -9 -45 -40 -84 -49 -13 -3 -50
-12 -83 -20 -33 -9 -87 -18 -120 -22 -131 -13 -187 -27 -192 -46 -3 -11 -9
-19 -14 -19 -25 0 -2 -32 56 -78 36 -29 65 -56 65 -60 0 -4 9 -8 20 -8 11 0
20 3 20 7 0 4 10 7 23 7 13 0 43 12 66 28 24 16 69 45 100 64 98 60 191 148
191 181 0 11 4 18 9 15 5 -4 7 3 4 14 -7 25 -19 26 -32 2z"/>
<path d="M2459 5605 c-6 -40 -4 -53 7 -43 3 3 4 23 2 44 l-3 39 -6 -40z"/>
<path d="M2441 5614 c0 -11 3 -14 6 -6 3 7 2 16 -1 19 -3 4 -6 -2 -5 -13z"/>
<path d="M7460 6433 c0 -4 5 -15 10 -23 8 -13 10 -13 10 2 0 9 -4 20 -10 23
-5 3 -10 3 -10 -2z"/>
<path d="M7899 6413 c-13 -16 -12 -17 4 -4 9 7 17 15 17 17 0 8 -8 3 -21 -13z"/>
<path d="M4395 6340 c-3 -5 -1 -10 4 -10 6 0 11 5 11 10 0 6 -2 10 -4 10 -3 0
-8 -4 -11 -10z"/>
<path d="M5546 6481 c-23 -25 -21 -29 25 -41 47 -13 50 -12 43 17 -4 15 -11
20 -22 16 -9 -4 -13 -2 -9 4 12 19 -21 22 -37 4z"/>
<path d="M5310 6480 c-12 -8 -12 -10 5 -10 11 0 27 5 35 10 12 8 12 10 -5 10
-11 0 -27 -5 -35 -10z"/>
<path d="M5383 6460 c-13 -5 -23 -12 -23 -15 0 -9 16 -5 36 10 22 16 19 18
-13 5z"/>
<path d="M5664 6435 c9 -38 23 -52 37 -38 7 7 3 19 -17 39 l-27 29 7 -30z"/>
<path d="M5651 6394 c0 -11 3 -14 6 -6 3 7 2 16 -1 19 -3 4 -6 -2 -5 -13z"/>
<path d="M6080 6310 c-8 -5 -11 -12 -7 -16 4 -4 13 -2 19 4 15 15 7 24 -12 12z"/>
<path d="M6140 6272 c0 -5 7 -13 16 -16 22 -8 24 -8 24 6 0 6 -3 8 -7 5 -3 -4
-12 -2 -20 4 -8 7 -13 8 -13 1z"/>
<path d="M5222 6378 c-17 -17 -15 -28 7 -28 16 0 31 18 31 36 0 9 -27 3 -38
-8z"/>
<path d="M5141 6303 c-16 -29 13 -54 44 -39 28 12 33 41 9 50 -27 10 -43 7
-53 -11z"/>
<path d="M4920 6169 c0 -5 5 -7 10 -4 6 3 10 8 10 11 0 2 -4 4 -10 4 -5 0 -10
-5 -10 -11z"/>
<path d="M4081 6258 c-20 -33 -13 -43 34 -46 49 -3 68 15 48 47 -14 22 -68 21
-82 -1z"/>
<path d="M6740 5948 c0 -6 3 -8 7 -5 3 4 12 2 20 -5 7 -6 17 -8 20 -4 8 8 -16
26 -34 26 -7 0 -13 -5 -13 -12z"/>
<path d="M5983 6025 c15 -9 33 -13 39 -9 6 4 8 3 5 -3 -4 -6 7 -10 25 -11 30
-1 30 -1 9 15 -12 8 -41 17 -64 20 l-42 4 28 -16z"/>
<path d="M6020 5926 c0 -14 21 -26 46 -26 25 0 15 18 -16 29 -24 8 -30 7 -30
-3z"/>
<path d="M5866 5904 c-9 -24 -4 -24 18 -3 16 16 17 19 4 19 -9 0 -19 -7 -22
-16z"/>
<path d="M5903 5873 c-7 -3 -13 -9 -13 -14 0 -4 7 -6 15 -3 8 4 15 1 15 -5 0
-6 5 -11 10 -11 14 0 12 27 -2 32 -7 3 -19 3 -25 1z"/>
<path d="M6200 5836 c0 -14 29 -31 38 -21 6 6 -18 35 -29 35 -5 0 -9 -6 -9
-14z"/>
<path d="M6150 5837 c0 -4 7 -22 16 -38 12 -24 21 -30 41 -27 15 2 29 10 31
18 4 13 3 13 -10 2 -11 -9 -18 -10 -23 -2 -3 6 -11 8 -16 5 -5 -4 -9 -2 -9 2
0 12 -29 51 -30 40z"/>
<path d="M6213 5710 c-30 -12 -20 -44 24 -77 29 -22 36 -24 44 -12 13 22 11
39 -7 39 -8 0 -13 4 -9 9 3 6 -3 14 -12 20 -16 9 -16 12 -3 21 13 9 13 10 0 9
-8 0 -25 -4 -37 -9z"/>
<path d="M6115 5590 c-3 -5 -2 -10 4 -10 5 0 13 5 16 10 3 6 2 10 -4 10 -5 0
-13 -4 -16 -10z"/>
<path d="M6370 5896 c0 -2 7 -6 15 -10 8 -3 15 -1 15 4 0 6 -7 10 -15 10 -8 0
-15 -2 -15 -4z"/>
<path d="M4008 5653 c7 -3 16 -2 19 1 4 3 -2 6 -13 5 -11 0 -14 -3 -6 -6z"/>
<path d="M3871 5574 c0 -11 3 -14 6 -6 3 7 2 16 -1 19 -3 4 -6 -2 -5 -13z"/>
<path d="M6911 5538 c33 -47 55 -63 63 -49 3 5 -4 11 -17 15 -19 5 -20 8 -7
17 12 9 13 11 1 16 -7 3 -22 14 -32 24 -35 35 -40 20 -8 -23z"/>
<path d="M5522 5310 c0 -14 2 -19 5 -12 2 6 2 18 0 25 -3 6 -5 1 -5 -13z"/>
<path d="M5488 5278 c-7 -18 1 -32 25 -41 26 -10 47 2 47 27 0 12 -3 16 -8 10
-16 -23 -43 -24 -51 -2 -6 17 -9 18 -13 6z"/>
<path d="M6775 5370 c3 -5 10 -10 16 -10 5 0 9 5 9 10 0 6 -7 10 -16 10 -8 0
-12 -4 -9 -10z"/>
<path d="M3632 2280 c-32 -13 -52 -68 -52 -140 l0 -60 85 0 85 0 0 70 c0 80
-12 113 -47 129 -28 13 -40 13 -71 1z"/>
<path d="M4741 2279 c-41 -16 -50 -39 -51 -119 l0 -75 85 0 85 0 0 76 c0 65
-3 78 -22 97 -29 26 -66 34 -97 21z"/>
<path d="M6409 2279 c-36 -13 -49 -48 -49 -130 l0 -70 85 2 85 2 0 77 c0 66
-3 79 -22 98 -29 26 -65 34 -99 21z"/>
</g>
</svg>
